<svg width="48" height="48" viewBox="0 0 48 48" fill="none" xmlns="http://www.w3.org/2000/svg">
<rect width="47.4361" height="47.4361" rx="23.718" fill="#2F3235"/>
<mask id="mask0_869_7712" style="mask-type:alpha" maskUnits="userSpaceOnUse" x="9" y="9" width="29" height="29">
<rect x="9.48633" y="9.4873" width="28.4616" height="28.4616" fill="#D9D9D9"/>
</mask>
<g mask="url(#mask0_869_7712)">
<path d="M22.8303 34.0945V29.8185C22.8303 28.7269 22.6699 27.8914 22.3491 27.3121C22.0283 26.7328 21.576 26.1824 20.9921 25.661L22.2601 24.393C22.5125 24.6256 22.7645 24.8959 23.0161 25.2038C23.2677 25.5116 23.5023 25.8381 23.7197 26.1834C23.9737 25.7545 24.2667 25.3588 24.5987 24.9963C24.931 24.6336 25.2758 24.2911 25.6331 23.9687C26.5058 23.1858 27.2408 22.2447 27.8383 21.1454C28.4358 20.0461 28.7392 18.2878 28.7485 15.8705L27.2089 17.4098C27.0446 17.574 26.8414 17.658 26.599 17.6618C26.3565 17.6656 26.1433 17.5816 25.9593 17.4098C25.7752 17.2258 25.6832 17.0145 25.6832 16.7759C25.6832 16.5372 25.7752 16.3258 25.9593 16.1418L28.8988 13.2022C29.0099 13.0911 29.127 13.0129 29.2501 12.9674C29.3733 12.9218 29.5063 12.8989 29.6492 12.8989C29.7921 12.8989 29.9251 12.9218 30.0482 12.9674C30.1714 13.0129 30.2885 13.0911 30.3996 13.2022L33.3575 16.1602C33.5215 16.3244 33.6085 16.5277 33.6184 16.77C33.6283 17.0125 33.5413 17.2258 33.3575 17.4098C33.1855 17.5816 32.9772 17.6674 32.7325 17.6674C32.4878 17.6674 32.2795 17.5816 32.1076 17.4098L30.527 15.8477C30.518 18.5905 30.1459 20.6281 29.4108 21.9607C28.6758 23.2933 27.8209 24.4036 26.8463 25.2916C26.1911 25.8875 25.6544 26.4743 25.2361 27.0521C24.8181 27.6298 24.6091 28.5519 24.6091 29.8185V34.0945C24.6091 34.3469 24.5239 34.5582 24.3535 34.7284C24.1834 34.8988 23.9721 34.984 23.7197 34.984C23.4673 34.984 23.256 34.8988 23.0858 34.7284C22.9154 34.5582 22.8303 34.3469 22.8303 34.0945ZM17.172 19.1477C17.0854 18.7447 17.0236 18.2453 16.9864 17.6494C16.9491 17.0532 16.9244 16.4527 16.9123 15.8477L15.3318 17.4282C15.1675 17.5922 14.9642 17.6762 14.7216 17.6802C14.4791 17.6839 14.2659 17.5938 14.0819 17.4098C13.9101 17.238 13.8242 17.0297 13.8242 16.7848C13.8242 16.5401 13.9101 16.3319 14.0819 16.1602L17.0398 13.2022C17.1509 13.0911 17.268 13.0129 17.3911 12.9674C17.5142 12.9218 17.6473 12.8989 17.7902 12.8989C17.9331 12.8989 18.0661 12.9218 18.1892 12.9674C18.3124 13.0129 18.4295 13.0911 18.5405 13.2022L21.4985 16.1602C21.6748 16.3365 21.7618 16.5428 21.7594 16.7792C21.7572 17.0156 21.6641 17.2258 21.4801 17.4098C21.2961 17.5816 21.0878 17.6674 20.8551 17.6674C20.6227 17.6674 20.4145 17.5816 20.2305 17.4098L18.6909 15.8886C18.6834 16.4254 18.7012 16.9431 18.7445 17.4418C18.7878 17.9405 18.8407 18.3708 18.9031 18.7327L17.172 19.1477ZM19.5509 24.2628C19.1936 23.863 18.8473 23.3959 18.5121 22.8617C18.1769 22.3272 17.8975 21.7346 17.674 21.0837L19.3867 20.6574C19.5539 21.115 19.7602 21.5411 20.0057 21.9358C20.2512 22.3303 20.5222 22.6834 20.8187 22.9951L19.5509 24.2628Z" fill="white"/>
</g>
</svg>
