<svg width="48" height="48" viewBox="0 0 48 48" fill="none" xmlns="http://www.w3.org/2000/svg">
<rect width="47.4361" height="47.4361" rx="23.718" fill="#2F3235"/>
<mask id="mask0_869_7726" style="mask-type:alpha" maskUnits="userSpaceOnUse" x="9" y="9" width="29" height="29">
<rect x="9.48633" y="9.4873" width="28.4616" height="28.4616" fill="#D9D9D9"/>
</mask>
<g mask="url(#mask0_869_7726)">
<path d="M21.9293 16.0097V14.9607H21.473C21.2054 14.9607 20.9789 14.8679 20.7935 14.6824C20.6079 14.497 20.5151 14.2705 20.5151 14.0028C20.5151 13.7352 20.6079 13.5087 20.7935 13.3233C20.9789 13.1377 21.2054 13.0449 21.473 13.0449H26.9466C27.2369 13.0449 27.4843 13.1472 27.6886 13.3518C27.8932 13.5563 27.9955 13.8038 27.9955 14.0941V14.8534C27.9955 14.9447 27.9875 15.0231 27.9715 15.0885C27.9555 15.1538 27.9277 15.2282 27.8882 15.3118L26.8781 17.3325H23.959V16.1238L21.8039 18.3246C21.7841 18.3443 21.6526 18.3861 21.4093 18.45C21.2421 18.45 21.1117 18.3773 21.0182 18.2321C20.9247 18.087 20.9198 17.9407 21.0034 17.7933L21.9293 16.0097ZM21.5872 34.9841C20.9956 34.9841 20.4904 34.7747 20.0716 34.3559C19.6528 33.9368 19.4434 33.4317 19.4434 32.8403V27.4444C19.4434 27.262 19.4612 27.0884 19.497 26.9235C19.5328 26.7585 19.5962 26.5946 19.6874 26.432L23.4481 19.3486C23.6122 19.0444 23.8334 18.8072 24.1117 18.637C24.39 18.4667 24.6994 18.3815 25.0399 18.3815H26.6726C26.9784 18.3815 27.2334 18.4838 27.4378 18.6883C27.6424 18.8927 27.7447 19.1478 27.7447 19.4535V32.8403C27.7447 33.4317 27.5353 33.9368 27.1164 34.3559C26.6974 34.7747 26.1922 34.9841 25.6009 34.9841H21.5872ZM21.5872 33.2052H25.6009C25.7074 33.2052 25.7948 33.171 25.8632 33.1027C25.9316 33.0343 25.9658 32.9468 25.9658 32.8403V20.1603H25.0284L21.2222 27.3831V32.8403C21.2222 32.9468 21.2564 33.0343 21.3248 33.1027C21.3932 33.171 21.4806 33.2052 21.5872 33.2052ZM21.5872 33.2052H21.2222H25.9658H21.5872Z" fill="white"/>
</g>
</svg>
