<svg width="48" height="48" viewBox="0 0 48 48" fill="none" xmlns="http://www.w3.org/2000/svg">
<rect width="47.4361" height="47.4361" rx="23.718" fill="#2F3235"/>
<mask id="mask0_869_7720" style="mask-type:alpha" maskUnits="userSpaceOnUse" x="9" y="9" width="29" height="29">
<rect x="9.48633" y="9.4873" width="28.4616" height="28.4616" fill="#D9D9D9"/>
</mask>
<g mask="url(#mask0_869_7720)">
<path d="M22.6504 27.2755H24.785C24.9629 27.2755 25.1161 27.2013 25.2445 27.0531C25.373 26.9049 25.4175 26.7418 25.3779 26.5639L24.8146 23.4509C25.2099 23.2533 25.5212 22.9667 25.7485 22.5911C25.9758 22.2156 26.0895 21.8005 26.0895 21.3459C26.0895 20.6937 25.8572 20.1353 25.3928 19.6709C24.9283 19.2064 24.3699 18.9741 23.7177 18.9741C23.0654 18.9741 22.5071 19.2064 22.0426 19.6709C21.5781 20.1353 21.3459 20.6937 21.3459 21.3459C21.3459 21.8005 21.4595 22.2156 21.6868 22.5911C21.9141 22.9667 22.2254 23.2533 22.6207 23.4509L22.0574 26.5639C22.0179 26.7418 22.0624 26.9049 22.1908 27.0531C22.3193 27.2013 22.4725 27.2755 22.6504 27.2755ZM23.3323 35.4285C23.2137 35.4088 23.0951 35.3791 22.9765 35.3396C20.3082 34.4502 18.1835 32.8047 16.6023 30.4033C15.0211 28.0018 14.2305 25.4175 14.2305 22.6504V17.0471C14.2305 16.5529 14.3738 16.1082 14.6604 15.7129C14.947 15.3176 15.3175 15.031 15.7721 14.8531L22.8875 12.1849C23.1643 12.086 23.441 12.0366 23.7177 12.0366C23.9944 12.0366 24.2711 12.086 24.5478 12.1849L31.6632 14.8531C32.1178 15.031 32.4884 15.3176 32.775 15.7129C33.0616 16.1082 33.2049 16.5529 33.2049 17.0471V22.6504C33.2049 25.4175 32.4143 28.0018 30.8331 30.4033C29.2519 32.8047 27.1271 34.4502 24.4589 35.3396C24.3403 35.3791 24.2217 35.4088 24.1031 35.4285C23.9845 35.4483 23.856 35.4582 23.7177 35.4582C23.5793 35.4582 23.4509 35.4483 23.3323 35.4285ZM23.7177 33.0864C25.7732 32.4341 27.473 31.1296 28.8171 29.1729C30.1611 27.2162 30.8331 25.042 30.8331 22.6504V17.0471L23.7177 14.3788L16.6023 17.0471V22.6504C16.6023 25.042 17.2743 27.2162 18.6183 29.1729C19.9623 31.1296 21.6621 32.4341 23.7177 33.0864Z" fill="#EFF0EB"/>
</g>
</svg>
