<svg width="48" height="48" viewBox="0 0 48 48" fill="none" xmlns="http://www.w3.org/2000/svg">
<rect width="47.4361" height="47.4361" rx="23.718" fill="#2F3235"/>
<mask id="mask0_869_7702" style="mask-type:alpha" maskUnits="userSpaceOnUse" x="9" y="9" width="29" height="29">
<rect x="9.48633" y="9.4873" width="28.4616" height="28.4616" fill="#D9D9D9"/>
</mask>
<g mask="url(#mask0_869_7702)">
<path d="M23.7253 14.8513C25.8149 14.8513 27.7862 15.3009 29.6394 16.2002C31.4924 17.0995 33.0377 18.3953 34.2754 20.0876C34.3985 20.2426 34.4373 20.3836 34.3916 20.5107C34.346 20.6376 34.2677 20.7428 34.1568 20.8264C34.0457 20.91 33.9208 20.9473 33.7821 20.9382C33.6433 20.9293 33.5219 20.8525 33.4177 20.7078C32.3154 19.1509 30.9058 17.9605 29.1888 17.1365C27.472 16.3125 25.6508 15.9005 23.7253 15.9005C21.8081 15.9005 20.0057 16.3162 18.3182 17.1478C16.6305 17.9795 15.2294 19.1662 14.1151 20.7078C14.004 20.8705 13.877 20.958 13.7341 20.9702C13.5912 20.9823 13.4642 20.9427 13.3531 20.8516C13.2415 20.768 13.1737 20.6635 13.1498 20.538C13.1258 20.4124 13.1617 20.2821 13.2574 20.1469C14.4905 18.4821 16.0238 17.1833 17.8572 16.2506C19.6908 15.3177 21.6468 14.8513 23.7253 14.8513ZM23.7259 17.6381C26.3786 17.6381 28.6578 18.5221 30.5635 20.2901C32.4695 22.0581 33.4224 24.2483 33.4224 26.8609C33.4224 27.8329 33.0782 28.6446 32.3898 29.2958C31.7014 29.9471 30.8628 30.2727 29.8739 30.2727C28.8886 30.2727 28.041 29.9471 27.3311 29.2958C26.6209 28.6446 26.2658 27.8329 26.2658 26.8609C26.2658 26.1934 26.0182 25.6297 25.5229 25.1698C25.0273 24.7099 24.4358 24.4799 23.7482 24.4799C23.0544 24.4799 22.4575 24.7089 21.9574 25.1668C21.4576 25.6246 21.2077 26.1893 21.2077 26.8609C21.2077 28.8008 21.7835 30.4208 22.9352 31.7207C24.0869 33.0207 25.5621 33.9276 27.3607 34.4415C27.5198 34.4936 27.628 34.5806 27.6853 34.7024C27.7425 34.8241 27.7513 34.9546 27.7117 35.0937C27.6722 35.2155 27.6008 35.3219 27.4974 35.413C27.394 35.5043 27.2572 35.5302 27.0871 35.4907C25.0617 34.9768 23.4007 33.9595 22.1039 32.4388C20.8069 30.9179 20.1584 29.0586 20.1584 26.8609C20.1584 25.8878 20.5104 25.0729 21.2145 24.4161C21.9183 23.7594 22.7632 23.431 23.749 23.431C24.7347 23.431 25.5754 23.7594 26.2712 24.4161C26.9671 25.0729 27.315 25.8878 27.315 26.8609C27.315 27.5325 27.5685 28.0972 28.0755 28.5549C28.5825 29.0129 29.1808 29.2419 29.8704 29.2419C30.5598 29.2419 31.1493 29.0119 31.6388 28.552C32.1284 28.092 32.3732 27.5283 32.3732 26.8609C32.3732 24.5488 31.5245 22.6055 29.8271 21.031C28.1295 19.4563 26.1024 18.669 23.7458 18.669C21.3892 18.669 19.3653 19.4574 17.674 21.0343C15.9825 22.6111 15.1367 24.5472 15.1367 26.8425C15.1367 27.3208 15.1869 27.9186 15.2873 28.6359C15.3875 29.353 15.6019 30.1859 15.9304 31.1346C15.982 31.2897 15.9789 31.427 15.9212 31.5464C15.8635 31.6658 15.7632 31.7551 15.6203 31.8144C15.4774 31.8737 15.3413 31.8723 15.212 31.8102C15.0828 31.748 14.9922 31.646 14.9405 31.5043C14.6365 30.7105 14.4184 29.937 14.2861 29.1838C14.1537 28.4303 14.0875 27.656 14.0875 26.8609C14.0875 24.2483 15.0356 22.0581 16.9319 20.2901C18.8281 18.5221 21.0928 17.6381 23.7259 17.6381ZM23.7482 11.9458C25.003 11.9458 26.2286 12.099 27.4247 12.4053C28.6209 12.7117 29.7779 13.1515 30.8956 13.7247C31.0658 13.816 31.1638 13.9251 31.1897 14.052C31.2156 14.1789 31.2026 14.304 31.1508 14.4273C31.0993 14.5504 31.0099 14.6439 30.8828 14.7078C30.7559 14.7716 30.6126 14.7617 30.4529 14.6781C29.4131 14.1215 28.3292 13.7019 27.2012 13.4193C26.0732 13.1364 24.9203 12.995 23.7425 12.995C22.5847 12.995 21.4486 13.1361 20.3342 13.4181C19.2197 13.7001 18.147 14.1202 17.1163 14.6781C16.9961 14.754 16.8665 14.7711 16.7273 14.7294C16.5882 14.6875 16.4867 14.599 16.4228 14.4638C16.359 14.3284 16.3412 14.2022 16.3695 14.0852C16.3975 13.968 16.4792 13.8676 16.6144 13.7839C17.7137 13.1835 18.8662 12.727 20.0719 12.4145C21.2775 12.102 22.503 11.9458 23.7482 11.9458ZM23.7487 20.5255C25.5713 20.5255 27.1352 21.1355 28.4405 22.3556C29.7458 23.5757 30.3984 25.0775 30.3984 26.8609C30.3984 27.0182 30.3503 27.145 30.254 27.2413C30.1579 27.3373 30.0313 27.3853 29.8739 27.3853C29.7385 27.3853 29.6173 27.3373 29.5101 27.2413C29.4028 27.145 29.3492 27.0182 29.3492 26.8609C29.3492 25.3633 28.7952 24.1078 27.6871 23.0945C26.5789 22.0811 25.266 21.5744 23.7485 21.5744C22.2309 21.5744 20.924 22.0811 19.8279 23.0945C18.7317 24.1078 18.1836 25.363 18.1836 26.86C18.1836 28.4768 18.4641 29.8454 19.025 30.9659C19.5861 32.0864 20.4004 33.2168 21.4677 34.3573C21.5863 34.4772 21.6398 34.6068 21.6284 34.7459C21.6169 34.8851 21.5633 35.0026 21.4677 35.0984C21.3643 35.2018 21.243 35.2554 21.1039 35.2591C20.9647 35.2629 20.8396 35.2093 20.7286 35.0984C19.5853 33.8882 18.7006 32.6437 18.0742 31.3649C17.4477 30.0863 17.1344 28.5849 17.1344 26.8606C17.1344 25.0774 17.7811 23.5757 19.0745 22.3556C20.3681 21.1355 21.9262 20.5255 23.7487 20.5255ZM23.7049 26.3364C23.8614 26.3364 23.9883 26.3889 24.0855 26.4938C24.183 26.5986 24.2317 26.7209 24.2317 26.8609C24.2317 28.3666 24.771 29.6013 25.8496 30.565C26.9283 31.5286 28.1907 32.0104 29.6367 32.0104C29.7933 32.0104 29.9803 32.0005 30.1977 31.9807C30.4151 31.9609 30.6385 31.9313 30.868 31.8918C31.0157 31.8599 31.1422 31.8809 31.2478 31.9546C31.3535 32.0283 31.4262 32.1435 31.4657 32.3C31.5052 32.4394 31.4793 32.5612 31.388 32.6656C31.2969 32.7701 31.1799 32.8422 31.037 32.8817C30.7496 32.9576 30.4763 33.0062 30.2169 33.0276C29.9578 33.0489 29.7644 33.0596 29.6367 33.0596C27.9004 33.0596 26.3906 32.472 25.1075 31.2967C23.8241 30.1217 23.1825 28.6431 23.1825 26.8609C23.1825 26.7209 23.2304 26.5986 23.3263 26.4938C23.4219 26.3889 23.5481 26.3364 23.7049 26.3364Z" fill="white"/>
</g>
</svg>
