<svg width="150" height="46" viewBox="0 0 150 46" fill="none" xmlns="http://www.w3.org/2000/svg">
<g clip-path="url(#clip0_885_9980)">
<path d="M58.1388 9.82574L59.8189 0.399021C59.8585 0.178034 59.7179 -0.0020289 59.5059 1.72681e-05C51.2541 0.092095 42.8022 0.976041 34.2493 2.65595C34.0631 2.69278 33.9046 2.85647 33.8689 3.04677L33.0467 7.44604C33.0111 7.63633 32.8506 7.80207 32.6643 7.83686C24.0857 9.51677 15.5961 10.4028 7.31069 10.4928C7.10266 10.4948 6.90058 10.6708 6.85897 10.8897L4.93917 20.7196L4.46566 23.1402L2.46859 33.3608L1.99508 35.7814C1.35515 39.0553 0.717197 42.3271 0.0772632 45.601C0.0336764 45.822 0.174343 46.0021 0.388314 46C3.36212 45.9673 6.36367 45.8343 9.38503 45.601H9.40088C14.8869 45.1775 20.4402 44.4265 26.0292 43.3441C26.2175 43.3073 26.3779 43.1436 26.4136 42.9533L27.2358 38.554C27.2715 38.3637 27.4339 38.198 27.6202 38.1632C36.2741 36.4833 44.827 35.5973 53.1818 35.5072C53.3918 35.5052 53.5919 35.3292 53.6316 35.1103L55.3116 25.6836C55.3513 25.4626 55.2086 25.2825 54.9966 25.2846C46.7211 25.3746 38.2494 26.2504 29.6786 27.9119C29.435 27.9589 29.2507 27.7727 29.2963 27.5231L29.5974 25.9127C29.6331 25.7225 29.7936 25.5567 29.9818 25.5219C38.6001 23.842 47.1193 22.956 55.4384 22.866C55.6485 22.8639 55.8466 22.688 55.8862 22.469L57.5663 13.0423C57.6059 12.8213 57.4652 12.6413 57.2513 12.6433C49.0114 12.7333 40.5753 13.6091 32.0383 15.2706C31.7946 15.3177 31.6123 15.1315 31.6579 14.8818L31.959 13.2715C31.9947 13.0812 32.1552 12.9155 32.3414 12.8807C40.926 11.2008 49.4076 10.3148 57.6931 10.2247C57.9011 10.2227 58.0992 10.0467 58.1388 9.82778V9.82574ZM27.9411 33.1214C22.5126 34.1752 17.1197 34.9159 11.7882 35.3436C11.5624 35.362 11.4059 35.1778 11.4495 34.9466L11.7605 33.324C11.8001 33.1173 11.9864 32.9454 12.1884 32.9291C17.4862 32.5055 22.8454 31.773 28.2403 30.7294C28.4859 30.6824 28.6682 30.8686 28.6227 31.1182L28.3215 32.7285C28.2858 32.9188 28.1254 33.0846 27.9371 33.1194L27.9411 33.1214ZM30.3027 20.4802C24.896 21.5339 19.5249 22.2747 14.2172 22.7023C13.9914 22.7207 13.8368 22.5366 13.8804 22.3053L14.1915 20.6827C14.2311 20.4761 14.4173 20.3042 14.6174 20.2878C19.8934 19.8643 25.2308 19.1317 30.6039 18.0882C30.8476 18.0411 31.0318 18.2273 30.9843 18.477L30.6831 20.0873C30.6475 20.2776 30.487 20.4433 30.3007 20.4781L30.3027 20.4802Z" fill="#EFF0EB"/>
<path d="M66.6422 40.3894L73.2516 5.01929H86.9973C89.9988 5.01929 92.3624 5.74568 94.0861 7.19641C95.8731 8.67989 96.7686 10.8079 96.7686 13.5784C96.7686 15.6553 96.2179 17.4048 95.1163 18.8228C94.0148 20.2408 92.4575 21.2475 90.4466 21.8409V21.9902C93.991 23.0133 95.7463 25.4708 95.7146 29.3606C95.7146 32.2293 94.6606 34.7031 92.5526 36.78C90.1256 39.1883 86.7576 40.3915 82.4464 40.3915H66.6403L66.6422 40.3894ZM76.4612 24.5602L74.5929 34.5026H82.496C84.4435 34.5026 85.977 34.0504 87.0944 33.1419C88.2118 32.2354 88.7705 30.8747 88.7705 29.0598C88.7705 27.5763 88.3306 26.455 87.453 25.6959C86.5733 24.9367 85.4004 24.5582 83.9323 24.5582H76.4612V24.5602ZM77.4676 19.3159H84.5564C88.2613 19.3159 90.1118 17.7158 90.1118 14.5176C90.1118 12.0438 88.7705 10.8079 86.0879 10.8079H79.0467L77.4656 19.3159H77.4676Z" fill="#EFF0EB"/>
<path d="M95.6849 40.3894L102.294 5.01929H126.148L125.047 11.0043H108.044L106.56 18.968H121.504L120.403 24.8058H105.458L103.638 34.4514H121.025L119.923 40.3874H95.6869L95.6849 40.3894Z" fill="#EFF0EB"/>
<path d="M122.267 11.0064L123.368 5.0213H150L148.898 11.0064H138.984L133.477 40.3894H126.628L132.135 11.0064H122.269H122.267Z" fill="#EFF0EB"/>
</g>
<defs>
<clipPath id="clip0_885_9980">
<rect width="150" height="46" fill="white"/>
</clipPath>
</defs>
</svg>
